<?xml version="1.0" standalone="no"?><!DOCTYPE svg PUBLIC "-//W3C//DTD SVG 1.1//EN" "http://www.w3.org/Graphics/SVG/1.1/DTD/svg11.dtd"><svg t="1614620901720" class="icon" viewBox="0 0 1024 1024" version="1.1" xmlns="http://www.w3.org/2000/svg" p-id="1270" xmlns:xlink="http://www.w3.org/1999/xlink" width="200" height="200"><defs><style type="text/css"></style></defs><path d="M894.4 864H249.6c-48 0-86.4-38.4-86.4-86.4V246.4c0-48 38.4-86.4 86.4-86.4H896c48 0 86.4 38.4 86.4 86.4v529.6c0 49.6-40 88-88 88z" fill="#ffa36c" p-id="1271"></path><path d="M694.4 926.4c-9.6 0-19.2-6.4-22.4-16-25.6-81.6-107.2-81.6-108.8-81.6H212.8c-73.6 0-132.8-57.6-132.8-129.6V208c0-72 59.2-129.6 132.8-129.6h606.4c73.6 0 132.8 57.6 132.8 129.6v92.8c0 12.8-11.2 24-24 24s-24-11.2-24-24V208c0-44.8-38.4-81.6-84.8-81.6h-608c-46.4 0-84.8 36.8-84.8 81.6v489.6c0 44.8 38.4 81.6 84.8 81.6h350.4c40-1.6 124.8 20.8 155.2 115.2 3.2 12.8-3.2 25.6-16 30.4-1.6 0-4.8 1.6-6.4 1.6z" fill="#494949" p-id="1272"></path><path d="M819.2 828.8h-78.4c-12.8 0-24-11.2-24-24s11.2-24 24-24h78.4c46.4 0 84.8-36.8 84.8-81.6v-108.8c0-12.8 11.2-24 24-24s24 11.2 24 24v108.8c0 70.4-59.2 129.6-132.8 129.6zM588.8 464c-14.4 0-24-11.2-24-24S576 416 588.8 416h1.6c12.8 0 24 11.2 24 24-3.2 12.8-12.8 24-25.6 24z" fill="#494949" p-id="1273"></path><path d="M990.4 590.4H614.4s-11.2 0-24-1.6c-22.4-1.6-30.4-3.2-35.2-3.2-64-16-107.2-73.6-107.2-139.2 0-80 64-144 144-144h398.4v288zM592 350.4c-52.8 0-96 43.2-96 96 0 43.2 28.8 81.6 72 92.8 0 0 4.8 1.6 25.6 1.6 11.2 0 22.4 1.6 22.4 1.6H944v-192H592z" fill="#494949" p-id="1274"></path></svg>