<?xml version="1.0" standalone="no"?><!DOCTYPE svg PUBLIC "-//W3C//DTD SVG 1.1//EN" "http://www.w3.org/Graphics/SVG/1.1/DTD/svg11.dtd"><svg t="1614780151079" class="icon" viewBox="0 0 1024 1024" version="1.1" xmlns="http://www.w3.org/2000/svg" p-id="1043" xmlns:xlink="http://www.w3.org/1999/xlink" width="200" height="200"><defs><style type="text/css"></style></defs><path d="M926.571214 535.945846l-438.307009-424.391111C476.798906 100.457026 444.82735 87.521368 428.845949 87.521368H87.521368v366.670769c0 14.70359 12.90065 44.863453 23.534495 55.007179l437.816889 417.695727 377.698462-390.957949zM50.639863 572.529778C22.668034 545.827009 0 492.78906 0 454.192137V70.017094c0-38.66694 31.393915-70.017094 70.017094-70.017094h358.837607c38.66694 0 92.483829 21.757812 120.289367 48.679385l450.840069 436.521572a70.060855 70.060855 0 0 1 1.645401 99.012923L600.011487 999.931624c-26.851556 27.796786-71.26865 28.733265-99.266735 2.021744L50.639863 572.521026zM306.324786 437.606838c-72.502701 0-131.282051-58.77935-131.282051-131.282052 0-72.502701 58.77935-131.282051 131.282051-131.282051 72.502701 0 131.282051 58.77935 131.282052 131.282051 0 72.502701-58.77935 131.282051-131.282052 131.282052z m0-87.521368a43.760684 43.760684 0 1 0 0-87.521367 43.760684 43.760684 0 0 0 0 87.521367z" fill="#2c2c2c" p-id="1044"></path></svg>